<svg version="1.1" id="Layer_1" xmlns="http://www.w3.org/2000/svg" xmlns:xlink="http://www.w3.org/1999/xlink" x="0px" y="0px" viewBox="0 0 236.2 267.6" style="enable-background:new 0 0 236.2 267.6;" xml:space="preserve">
 <style type="text/css">
  .st0{fill:#844896;}
 </style>
 <g>
  <g>
   <path class="st0" d="M118.1,0L0,68.2v131.2l118.1,68.2l118.1-68.2V68.2L118.1,0z M215.7,187.6L118,244l-97.7-56.4V80L118,23.6
			L215.7,80V187.6L215.7,187.6z">
   </path>
   <path class="st0" d="M111.3,216.8c0,1-1.1,1.6-2,1.1l-68.8-39.7c-1.2-0.7-2-2-2-3.4V98c0-1,1.1-1.6,2-1.1l68.8,39.7
			c1.2,0.7,2,2,2,3.4V216.8z M186.5,86.4l-65.8,38c-1.6,0.9-3.6,0.9-5.2,0l-65.8-38c-0.9-0.5-0.9-1.8,0-2.3l65.8-38
			c1.6-0.9,3.6-0.9,5.2,0l65.8,38C187.4,84.6,187.4,85.9,186.5,86.4z M186.5,183.4l-59.7,34.5c-0.9,0.5-2-0.1-2-1.1v-68.9
			c0-1,1.1-1.6,2-1.1l59.7,34.5C187.4,181.7,187.4,182.9,186.5,183.4z">
   </path>
  </g>
 </g>
</svg>